<svg width="34" height="34" viewBox="0 0 34 34" fill="none" xmlns="http://www.w3.org/2000/svg">
<circle cx="17" cy="17" r="17" fill="url(#paint0_linear_84_1347)"/>
<g filter="url(#filter0_ddi_84_1347)">
<path d="M21.709 14.3247C21.6533 14.3247 21.6059 14.3136 21.5668 14.2913C21.5278 14.269 21.4971 14.23 21.4748 14.1743L20.9897 13.038L19.7686 12.5033C19.7128 12.481 19.6738 12.4504 19.6515 12.4114C19.6292 12.3724 19.618 12.325 19.618 12.2693C19.618 12.2136 19.6292 12.1663 19.6515 12.1273C19.6738 12.0883 19.7128 12.0577 19.7686 12.0354L20.9897 11.5173L21.4748 10.4312C21.4971 10.3755 21.5278 10.3365 21.5668 10.3142C21.6059 10.2919 21.6533 10.2808 21.709 10.2808C21.7648 10.2808 21.8122 10.2919 21.8512 10.3142C21.8903 10.3365 21.9209 10.3755 21.9432 10.4312L22.4283 11.5173L23.6495 12.0354C23.7052 12.0577 23.7443 12.0883 23.7666 12.1273C23.7889 12.1663 23.8 12.2136 23.8 12.2693C23.8 12.325 23.7889 12.3724 23.7666 12.4114C23.7443 12.4504 23.7052 12.481 23.6495 12.5033L22.4283 13.038L21.9432 14.1743C21.9209 14.23 21.8903 14.269 21.8512 14.2913C21.8122 14.3136 21.7648 14.3247 21.709 14.3247ZM21.709 24.2842C21.6644 24.2842 21.6198 24.2731 21.5752 24.2508C21.5306 24.2285 21.4971 24.1896 21.4748 24.1338L20.9897 23.0477L19.7853 22.5296C19.7296 22.5074 19.6905 22.4767 19.6682 22.4377C19.6459 22.3987 19.6348 22.3514 19.6348 22.2957C19.6348 22.24 19.6459 22.1926 19.6682 22.1536C19.6905 22.1147 19.7296 22.084 19.7853 22.0617L20.9897 21.5437L21.4748 20.3907C21.4971 20.335 21.5278 20.296 21.5668 20.2737C21.6059 20.2514 21.6533 20.2403 21.709 20.2403C21.7648 20.2403 21.8122 20.2514 21.8512 20.2737C21.8903 20.296 21.9209 20.335 21.9432 20.3907L22.4283 21.5437L23.6327 22.0617C23.6885 22.084 23.7275 22.1147 23.7498 22.1536C23.7722 22.1926 23.7833 22.24 23.7833 22.2957C23.7833 22.3514 23.7722 22.3987 23.7498 22.4377C23.7275 22.4767 23.6885 22.5074 23.6327 22.5296L22.4283 23.0477L21.9432 24.1338C21.9209 24.1896 21.8875 24.2285 21.8429 24.2508C21.7983 24.2731 21.7536 24.2842 21.709 24.2842ZM14.3655 21.3933C14.2762 21.3933 14.1898 21.3682 14.1062 21.3181C14.0225 21.268 13.9584 21.1984 13.9138 21.1092L12.8265 18.7865L10.4846 17.7337C10.3954 17.6891 10.3257 17.6251 10.2755 17.5415C10.2253 17.458 10.2002 17.3716 10.2002 17.2825C10.2002 17.1934 10.2253 17.107 10.2755 17.0235C10.3257 16.9399 10.3954 16.8759 10.4846 16.8313L12.8265 15.7785L13.9138 13.4725C13.9584 13.3722 14.0225 13.297 14.1062 13.2469C14.1898 13.1968 14.2762 13.1717 14.3655 13.1717C14.4547 13.1717 14.5411 13.1968 14.6247 13.2469C14.7084 13.297 14.7725 13.3667 14.8171 13.4558L15.9212 15.7785L18.2463 16.8313C18.3467 16.8759 18.422 16.9399 18.4722 17.0235C18.5224 17.107 18.5474 17.1934 18.5474 17.2825C18.5474 17.3716 18.5224 17.458 18.4722 17.5415C18.422 17.6251 18.3467 17.6891 18.2463 17.7337L15.9212 18.7865L14.8171 21.1092C14.7725 21.2095 14.7084 21.2819 14.6247 21.3265C14.5411 21.371 14.4547 21.3933 14.3655 21.3933Z" fill="url(#paint1_linear_84_1347)" shape-rendering="crispEdges"/>
</g>
<defs>
<filter id="filter0_ddi_84_1347" x="3.83343" y="4.71899" width="25.6013" height="27.1029" filterUnits="userSpaceOnUse" color-interpolation-filters="sRGB">
<feFlood flood-opacity="0" result="BackgroundImageFix"/>
<feColorMatrix in="SourceAlpha" type="matrix" values="0 0 0 0 0 0 0 0 0 0 0 0 0 0 0 0 0 0 127 0" result="hardAlpha"/>
<feOffset dx="-1.31726" dy="2.48816"/>
<feGaussianBlur stdDeviation="2.52475"/>
<feComposite in2="hardAlpha" operator="out"/>
<feColorMatrix type="matrix" values="0 0 0 0 0.0506089 0 0 0 0 0.0159861 0 0 0 0 0.191833 0 0 0 0.25 0"/>
<feBlend mode="normal" in2="BackgroundImageFix" result="effect1_dropShadow_84_1347"/>
<feColorMatrix in="SourceAlpha" type="matrix" values="0 0 0 0 0 0 0 0 0 0 0 0 0 0 0 0 0 0 127 0" result="hardAlpha"/>
<feOffset dx="1.24408" dy="-1.1709"/>
<feGaussianBlur stdDeviation="2.19544"/>
<feComposite in2="hardAlpha" operator="out"/>
<feColorMatrix type="matrix" values="0 0 0 0 1 0 0 0 0 1 0 0 0 0 1 0 0 0 0.35 0"/>
<feBlend mode="normal" in2="effect1_dropShadow_84_1347" result="effect2_dropShadow_84_1347"/>
<feBlend mode="normal" in="SourceGraphic" in2="effect2_dropShadow_84_1347" result="shape"/>
<feColorMatrix in="SourceAlpha" type="matrix" values="0 0 0 0 0 0 0 0 0 0 0 0 0 0 0 0 0 0 127 0" result="hardAlpha"/>
<feOffset dy="3.07361"/>
<feGaussianBlur stdDeviation="1.9393"/>
<feComposite in2="hardAlpha" operator="arithmetic" k2="-1" k3="1"/>
<feColorMatrix type="matrix" values="0 0 0 0 1 0 0 0 0 1 0 0 0 0 1 0 0 0 1 0"/>
<feBlend mode="normal" in2="shape" result="effect3_innerShadow_84_1347"/>
</filter>
<linearGradient id="paint0_linear_84_1347" x1="20.3" y1="28.2" x2="27.5306" y2="2.06204" gradientUnits="userSpaceOnUse">
<stop stop-color="#4A25E1"/>
<stop offset="0.927091" stop-color="#7B5AFF"/>
</linearGradient>
<linearGradient id="paint1_linear_84_1347" x1="19.3774" y1="16.8722" x2="17.2706" y2="26.6664" gradientUnits="userSpaceOnUse">
<stop stop-color="white" stop-opacity="0.96"/>
<stop offset="1" stop-color="white" stop-opacity="0.23"/>
</linearGradient>
</defs>
</svg>
