<svg width="20" height="20" viewBox="0 0 20 20" fill="none" xmlns="http://www.w3.org/2000/svg">
<path d="M13.3333 3.33472C15.1459 3.34481 16.1274 3.42518 16.7678 4.0655C17.5 4.79773 17.5 5.97625 17.5 8.33327V13.3333C17.5 15.6903 17.5 16.8688 16.7678 17.601C16.0355 18.3333 14.857 18.3333 12.5 18.3333H7.5C5.14298 18.3333 3.96447 18.3333 3.23223 17.601C2.5 16.8688 2.5 15.6903 2.5 13.3333V8.33327C2.5 5.97625 2.5 4.79773 3.23223 4.0655C3.87255 3.42518 4.85414 3.34481 6.66667 3.33472" stroke="white" stroke-width="1.25"/>
<path d="M6.66699 11.6666H13.3337" stroke="white" stroke-width="1.25" stroke-linecap="round"/>
<path d="M5.83301 8.75H14.1663" stroke="white" stroke-width="1.25" stroke-linecap="round"/>
<path d="M7.5 14.5834H12.5" stroke="white" stroke-width="1.25" stroke-linecap="round"/>
<path d="M6.66699 2.91663C6.66699 2.22627 7.22664 1.66663 7.91699 1.66663H12.0837C12.774 1.66663 13.3337 2.22627 13.3337 2.91663V3.74996C13.3337 4.44032 12.774 4.99996 12.0837 4.99996H7.91699C7.22664 4.99996 6.66699 4.44032 6.66699 3.74996V2.91663Z" stroke="white" stroke-width="1.25"/>
</svg>
