<svg width="19" height="19" viewBox="0 0 19 19" fill="none" xmlns="http://www.w3.org/2000/svg">
<path d="M16.5 1H2.5C1.94772 1 1.5 1.44772 1.5 2V3.58579C1.5 3.851 1.60536 4.10536 1.79289 4.29289L7.20711 9.70711C7.39464 9.89464 7.5 10.149 7.5 10.4142V16.382C7.5 17.1253 8.28231 17.6088 8.94721 17.2764L10.9472 16.2764C11.286 16.107 11.5 15.7607 11.5 15.382V10.4142C11.5 10.149 11.6054 9.89464 11.7929 9.70711L17.2071 4.29289C17.3946 4.10536 17.5 3.851 17.5 3.58579V2C17.5 1.44772 17.0523 1 16.5 1Z" stroke="white" stroke-width="2" stroke-linecap="round" stroke-linejoin="round"/>
</svg>
