<svg width="143" height="128" viewBox="0 0 143 128" fill="none" xmlns="http://www.w3.org/2000/svg">
<path d="M27.3523 97.0227H0.167969V94.0951H27.3523V97.0227Z" fill="#D1D1FF"/>
<path d="M27.3523 86.5665H0.167969V83.6389H27.3523V86.5665Z" fill="#D1D1FF"/>
<path d="M27.3523 76.1102H0.167969V73.1826H27.3523V76.1102Z" fill="#D1D1FF"/>
<path d="M27.3523 107.06H0.167969V104.132H27.3523V107.06Z" fill="#D1D1FF"/>
<path d="M0.313639 124.733H0V73.076H0.313639V124.733Z" fill="#1B1B43"/>
<path d="M27.4866 124.736H27.1729V73.0791H27.4866V124.736Z" fill="#1B1B43"/>
<path d="M123.653 32.9739L123.628 32.7667C124.116 32.7066 124.622 32.7018 125.111 32.7534L125.089 32.9615C124.616 32.9109 124.126 32.9156 123.653 32.9739ZM127.785 33.8988C127.38 33.6411 126.944 33.4311 126.492 33.2736L126.561 33.076C127.028 33.2392 127.478 33.4559 127.897 33.7222L127.785 33.8988ZM120.976 33.9618L120.862 33.7871C121.275 33.5141 121.721 33.2879 122.185 33.117L122.258 33.3127C121.808 33.4788 121.377 33.6974 120.976 33.9618ZM129.786 35.9339C129.537 35.5254 129.239 35.1435 128.902 34.8018L129.051 34.6548C129.399 35.0089 129.707 35.4022 129.964 35.8241L129.786 35.9339ZM119.013 36.0332L118.832 35.9282C119.083 35.5005 119.383 35.1015 119.724 34.7407L119.876 34.8849C119.546 35.2333 119.255 35.6199 119.013 36.0332ZM130.678 38.6438C130.636 38.1656 130.539 37.6922 130.389 37.2368L130.588 37.1719C130.742 37.6425 130.843 38.1313 130.886 38.6257L130.678 38.6438ZM118.172 38.7603L117.963 38.746C117.997 38.2496 118.089 37.759 118.234 37.2865L118.434 37.3476C118.293 37.8048 118.205 38.2802 118.172 38.7603ZM130.743 40.6751L130.54 40.6274C130.648 40.1625 130.702 39.6824 130.702 39.2003H130.912C130.912 39.6977 130.855 40.194 130.743 40.6751ZM118.43 41.6573C118.241 41.1982 118.106 40.7171 118.029 40.2284L118.235 40.195C118.31 40.6684 118.441 41.1342 118.622 41.5781L118.43 41.6573ZM129.436 43.3182L129.274 43.1856C129.58 42.8152 129.842 42.4095 130.055 41.98L130.242 42.0726C130.023 42.5164 129.752 42.9355 129.436 43.3182ZM120.138 44.0599C119.767 43.7316 119.433 43.3602 119.145 42.9565L119.315 42.8352C119.594 43.2256 119.918 43.5855 120.277 43.9034L120.138 44.0599ZM127.095 45.1118L127.009 44.9209C127.446 44.7233 127.86 44.4761 128.242 44.184L128.369 44.3491C127.974 44.6517 127.546 44.9075 127.095 45.1118ZM122.734 45.4593C122.256 45.3304 121.792 45.1452 121.355 44.9095L121.455 44.7252C121.877 44.9534 122.326 45.1328 122.789 45.2579L122.734 45.4593ZM124.429 45.6836C124.353 45.6836 124.278 45.6817 124.202 45.6798L124.209 45.4707C124.687 45.487 125.173 45.4488 125.641 45.3571L125.681 45.5624C125.271 45.6425 124.85 45.6836 124.429 45.6836Z" fill="#9192FF"/>
<path d="M24.2358 4.7463L24.2101 4.53821C24.6983 4.47807 25.2052 4.47331 25.6937 4.52485L25.6722 4.73198C25.1989 4.68234 24.7079 4.68712 24.2358 4.7463ZM28.3677 5.66934C27.9619 5.41257 27.5267 5.20258 27.0744 5.04508L27.1431 4.84749C27.6106 5.00976 28.0602 5.22739 28.4797 5.49275L28.3677 5.66934ZM21.5592 5.7333L21.4438 5.55862C21.8578 5.28562 22.3033 5.05939 22.7677 4.88853L22.8401 5.08421C22.3908 5.2503 21.9596 5.46889 21.5592 5.7333ZM30.3691 7.70443C30.1193 7.29588 29.8219 6.91503 29.4851 6.57234L29.6342 6.42629C29.9822 6.77947 30.2894 7.17274 30.5476 7.59561L30.3691 7.70443ZM19.5958 7.80561L19.4154 7.69966C19.6656 7.27202 19.9656 6.87302 20.3071 6.51316L20.4587 6.65634C20.1283 7.0057 19.838 7.39229 19.5958 7.80561ZM31.2615 10.4144C31.2192 9.9352 31.122 9.46269 30.9725 9.00833L31.171 8.94247C31.3257 9.41211 31.4262 9.90083 31.4699 10.3962L31.2615 10.4144ZM18.7544 10.5318L18.5459 10.5175C18.5803 10.0211 18.6715 9.53047 18.8173 9.05797L19.017 9.12001C18.876 9.57724 18.7878 10.0517 18.7544 10.5318ZM31.3264 12.4466L31.1227 12.3989C31.2311 11.934 31.2859 11.4539 31.2859 10.9718H31.495C31.495 11.4701 31.4383 11.9655 31.3264 12.4466ZM19.012 13.4288C18.8241 12.9706 18.6894 12.4905 18.6111 11.9999L18.8175 11.9674C18.8931 12.4409 19.0237 12.9067 19.2054 13.3496L19.012 13.4288ZM30.0192 15.0897L29.8577 14.957C30.1633 14.5867 30.4259 14.18 30.6383 13.7515L30.8257 13.844C30.6062 14.2879 30.3348 14.707 30.0192 15.0897ZM20.7215 15.8314C20.3498 15.503 20.0158 15.1317 19.7286 14.7279L19.8989 14.6067C20.177 14.9981 20.5003 15.357 20.8599 15.6749L20.7215 15.8314ZM27.6783 16.8833L27.5924 16.6924C28.0284 16.4958 28.443 16.2476 28.8244 15.9555L28.9516 16.1206C28.5574 16.4232 28.1291 16.679 27.6783 16.8833ZM23.3177 17.2308C22.8396 17.1019 22.3756 16.9167 21.9387 16.6809L22.038 16.4967C22.4606 16.7248 22.9095 16.9043 23.3722 17.0294L23.3177 17.2308ZM25.0125 17.4551C24.9364 17.4551 24.8606 17.4532 24.7851 17.4513L24.7923 17.2422C25.2694 17.2584 25.7557 17.2203 26.2242 17.1286L26.2643 17.3338C25.8545 17.414 25.4333 17.4551 25.0125 17.4551Z" fill="#9192FF"/>
<path d="M110.086 7.29614L110.015 7.09855C110.483 6.9296 110.976 6.8351 111.478 6.81792L111.484 7.02696C111.005 7.04319 110.534 7.13387 110.086 7.29614ZM114.193 7.79537C113.794 7.52905 113.359 7.32764 112.9 7.19687L112.956 6.99642C113.437 7.13196 113.893 7.34292 114.309 7.62164L114.193 7.79537ZM107.859 9.02005L107.687 8.90168C107.97 8.48932 108.314 8.12469 108.71 7.81732L108.838 7.98341C108.459 8.27645 108.13 8.62487 107.859 9.02005ZM115.943 10.0023C115.775 9.55458 115.539 9.13745 115.241 8.76136L115.404 8.63155C115.717 9.02482 115.964 9.46105 116.138 9.92877L115.943 10.0023ZM106.85 11.7243C106.849 11.687 106.849 11.6489 106.849 11.6116C106.849 11.1477 106.914 10.6876 107.046 10.2466L107.246 10.3058C107.122 10.7277 107.058 11.1678 107.058 11.6116C107.058 11.6469 107.059 11.6832 107.06 11.7185L106.85 11.7243ZM116.212 13.0835L116.013 13.0196C116.159 12.5662 116.233 12.0927 116.233 11.6116C116.233 11.54 116.232 11.4684 116.228 11.3978L116.437 11.3883C116.441 11.4627 116.442 11.5372 116.442 11.6116C116.442 12.1147 116.365 12.6091 116.212 13.0835ZM107.817 14.5029C107.515 14.103 107.279 13.661 107.114 13.1895L107.312 13.1208C107.469 13.5723 107.695 13.9951 107.984 14.3769L107.817 14.5029ZM114.492 15.4728L114.368 15.3047C114.753 15.0203 115.09 14.6795 115.37 14.291L115.539 14.4142C115.247 14.8198 114.895 15.1759 114.492 15.4728ZM110.227 16.1953C109.75 16.0483 109.3 15.8269 108.889 15.5386L109.01 15.3678C109.402 15.6436 109.832 15.8546 110.289 15.9958L110.227 16.1953ZM111.701 16.4082L111.699 16.2001C112.179 16.1944 112.653 16.1142 113.104 15.9634L113.17 16.1619C112.699 16.3194 112.204 16.4025 111.701 16.4082Z" fill="#9192FF"/>
<path d="M124.363 22.9928C124.363 24.5038 123.138 25.7285 121.627 25.7285C120.116 25.7285 118.891 24.5038 118.891 22.9928C118.891 21.4818 120.116 20.2571 121.627 20.2571C123.138 20.2571 124.363 21.4818 124.363 22.9928Z" fill="#D1D1FF"/>
<path d="M107.47 32.1048V56.4371H102.333C102.665 55.4749 102.849 54.4087 102.849 53.2899C102.849 48.9859 100.135 45.4999 96.7844 45.4999C93.4342 45.4999 90.7207 48.9859 90.7207 53.2899C90.7207 54.4087 90.9039 55.4749 91.237 56.4371H50.9833C51.1903 57.2217 51.3032 58.0617 51.3032 58.9361C51.3032 63.2382 48.589 66.7261 45.239 66.7261C41.8891 66.7261 39.1748 63.2382 39.1748 58.9361C39.1748 58.0617 39.2877 57.2217 39.4947 56.4371H34.3799V32.1048H39.3797C39.2459 32.7472 39.1748 33.4231 39.1748 34.1189C39.1748 38.421 41.8891 41.9089 45.239 41.9089C48.589 41.9089 51.3032 38.421 51.3032 34.1189C51.3032 33.4231 51.2321 32.7472 51.0983 32.1048H91.4184C90.9736 31.0224 90.7207 29.7863 90.7207 28.4728C90.7207 24.1716 93.4342 20.6828 96.7844 20.6828C100.135 20.6828 102.849 24.1716 102.849 28.4728C102.849 29.7863 102.596 31.0224 102.15 32.1048H107.47Z" fill="#F4694D"/>
<path d="M81.3997 56.585L80.9912 56.4943C81.73 53.1582 83.0309 49.9309 84.8568 46.9002C86.3811 44.3716 87.1867 41.4669 87.1867 38.4993C87.1867 36.2866 86.7514 34.1408 85.8924 32.122L86.278 31.9587C87.158 34.0291 87.6047 36.2303 87.6047 38.4993C87.6047 41.5433 86.7782 44.5224 85.2157 47.1159C83.4117 50.1074 82.128 53.2937 81.3997 56.585Z" fill="white"/>
<path d="M60.4633 56.584C59.747 53.2374 58.4982 50.1103 56.7516 47.2896C55.1135 44.6446 54.2509 41.5938 54.2569 38.4687C54.2612 36.2179 54.7121 34.03 55.5976 31.9654L55.9821 32.1296C55.1189 34.1427 54.6792 36.2761 54.6751 38.4687C54.6693 41.5165 55.5103 44.4909 57.1071 47.0691C58.8791 49.9308 60.1459 53.1028 60.8723 56.4971L60.4633 56.584Z" fill="white"/>
<path d="M72.2048 49.2803V51.0051H70.0143V49.3576C68.461 49.264 66.9547 48.846 66.0225 48.2704L67.2026 45.5986C68.2283 46.2047 69.5944 46.5923 70.7913 46.5923C71.8317 46.5923 72.2048 46.3746 72.2048 46.0024C72.2048 44.6345 66.1932 45.738 66.1932 41.6831C66.1932 39.9277 67.4669 38.4519 70.0143 38.0949V36.4016H72.2048V38.0634C73.3531 38.1723 74.4727 38.4682 75.3584 38.9655L74.255 41.622C73.1822 41.0779 72.1734 40.8135 71.2256 40.8135C70.1537 40.8135 69.812 41.1247 69.812 41.4979C69.812 42.8018 75.8232 41.7155 75.8232 45.7227C75.8232 47.3998 74.612 48.8603 72.2048 49.2803Z" fill="white"/>
<path d="M47.4432 41.3758C47.2625 42.3761 46.8282 43.3736 46.1662 44.2528C45.1838 45.5567 43.7324 46.6305 41.8523 47.4438C39.7022 48.3735 36.8427 48.8785 34.3799 48.0203V48.2408C35.2666 48.5396 36.2004 48.6694 37.1338 48.6694C38.8353 48.6694 40.534 48.2418 41.9355 47.6357C43.8491 46.8071 45.3288 45.7113 46.3333 44.3788C47.05 43.4271 47.5069 42.3389 47.6746 41.2526C47.5982 41.2956 47.5211 41.3366 47.4432 41.3758Z" fill="white"/>
<path d="M107.484 45.4833L104.109 41.2098C102.619 39.3226 101.078 37.3716 100.111 35.1246C99.0336 32.6199 98.8885 30.1161 99.7045 28.0753C100.216 26.7952 101.157 25.7491 102.267 25.0981C102.242 25.0331 102.216 24.9682 102.19 24.9043C101.028 25.5763 100.043 26.6645 99.5108 27.998C98.6737 30.0903 98.8188 32.6504 99.9193 35.2076C100.897 37.4794 102.447 39.442 103.945 41.3396L107.484 45.8212V45.4833Z" fill="white"/>
<path d="M107.47 56.4375V70.5533C107.47 75.7565 103.62 80.0586 98.6122 80.7678H43.2378C38.2316 80.0586 34.3799 75.7565 34.3799 70.5533V56.4375H39.4947C39.2877 57.2221 39.1748 58.0621 39.1748 58.9365C39.1748 63.2386 41.8891 66.7265 45.239 66.7265C48.589 66.7265 51.3032 63.2386 51.3032 58.9365C51.3032 58.0621 51.1903 57.2221 50.9833 56.4375H91.237C90.9039 55.4753 90.7207 54.4091 90.7207 53.2904C90.7207 48.9863 93.4342 45.5003 96.7844 45.5003C100.135 45.5003 102.849 48.9863 102.849 53.2904C102.849 54.4091 102.665 55.4753 102.333 56.4375H107.47Z" fill="#8056D6"/>
<path d="M80.7525 63.8075H80.4194V63.5984H80.3344V62.894C80.3344 62.7718 80.3354 62.6496 80.3373 62.5274L80.7553 62.5332C80.7534 62.6535 80.7525 62.7737 80.7525 62.894V63.8075ZM79.2282 63.8075H78.0361V63.3894H79.2282V63.8075ZM76.8449 63.8075H75.6528V63.3894H76.8449V63.8075ZM74.4606 63.8075H73.2694V63.3894H74.4606V63.8075ZM72.0773 63.8075H70.8861V63.3894H72.0773V63.8075ZM69.694 63.8075H68.5024V63.3894H69.694V63.8075ZM67.3108 63.8075H66.119V63.3894H67.3108V63.8075ZM64.9274 63.8075H63.7355V63.3894H64.9274V63.8075ZM62.5439 63.8075H61.3522V63.3894H62.5439V63.8075ZM61.0877 62.4578C61.0787 62.0655 61.0621 61.6674 61.0385 61.2751L61.456 61.2503C61.4798 61.6483 61.4966 62.0511 61.5058 62.4482L61.0877 62.4578ZM80.7945 61.3505L80.3764 61.3276C80.3984 60.9315 80.428 60.5286 80.4661 60.1306L80.8823 60.1707C80.8451 60.563 80.8155 60.9601 80.7945 61.3505ZM60.9456 60.0943C60.9074 59.703 60.8614 59.3078 60.8087 58.9183L61.2232 58.863C61.2764 59.2562 61.3231 59.6571 61.3618 60.0542L60.9456 60.0943ZM81.0178 58.9947L80.6036 58.9384C80.658 58.5432 80.72 58.1442 80.7897 57.7528L81.2011 57.8263C81.1324 58.212 81.0713 58.6052 81.0178 58.9947ZM60.6277 57.749C60.56 57.3605 60.4842 56.9692 60.4023 56.5864L60.8112 56.4995C60.8942 56.8871 60.9711 57.2832 61.0397 57.6774L60.6277 57.749ZM81.4311 56.6646L81.0226 56.5768L81.0407 56.4957L81.4473 56.5902L81.4311 56.6646Z" fill="#D6D7F5"/>
<path d="M89.2821 80.7651H89.0597C88.2513 78.606 87.7397 76.338 87.5688 74.0499C87.3779 71.4956 87.7387 69.6581 88.7027 68.2673C89.8662 66.5921 92.0262 65.5459 94.6309 65.397C94.881 65.3827 95.132 65.376 95.383 65.376C96.8644 65.376 98.3486 65.6051 99.7898 65.8285C100.296 65.9067 100.818 65.9879 101.331 66.0576C102.181 66.1721 103.139 66.2723 104.132 66.2723C105.241 66.2723 106.392 66.1473 107.478 65.7769V65.9965C106.386 66.3582 105.235 66.4814 104.127 66.4814C103.126 66.4814 102.159 66.3802 101.303 66.2647C100.787 66.195 100.264 66.1139 99.7583 66.0356C98.3238 65.8132 96.8482 65.5851 95.3792 65.5851C95.1339 65.5851 94.8877 65.5917 94.6433 65.6051C92.1035 65.7502 90.0008 66.7639 88.8755 68.3866C87.9391 69.7354 87.5908 71.5299 87.7778 74.0347C87.9487 76.3284 88.4651 78.6031 89.2821 80.7651Z" fill="#D6D7F5"/>
<path d="M48.2593 80.7678H48.049C47.8298 78.5065 47.2244 76.4294 45.8656 74.6836C44.3761 72.7697 42.0273 71.4343 39.2515 70.9227C38.3601 70.7585 37.4208 70.6764 36.4246 70.6764C35.7701 70.6764 35.0908 70.7117 34.3847 70.7824C34.3831 70.7127 34.38 70.643 34.3799 70.5733C35.0872 70.5027 35.7679 70.4674 36.4246 70.4674C37.4333 70.4674 38.3856 70.5504 39.2895 70.7174C42.1157 71.2377 44.5098 72.6008 46.0307 74.5557C47.4229 76.3445 48.0386 78.4645 48.2593 80.7678Z" fill="#D6D7F5"/>
<path d="M89.0543 100.65L80.4803 81.3062H61.3697L52.7964 100.65L52.4141 100.481L61.0976 80.8881H80.7523L89.4361 100.481L89.0543 100.65Z" fill="#1B1B43"/>
<path d="M80.6231 81.2325H61.2402V76.603H80.6231V81.2325Z" fill="#1B1B43"/>
<path d="M40.1885 124.735H101.664V99.335H40.1885V124.735Z" fill="#D1D1FF"/>
<path d="M101.664 124.735H40.1885V121.044C41.3011 121.087 42.435 121.109 43.5816 121.109C63.4472 121.109 87.7808 114.592 95.009 99.335H101.664V124.63V124.735Z" fill="#BEBEFF"/>
<path d="M10.5656 89.5648L9.79883 94.1656H14.7478L13.8416 89.5648H10.5656Z" fill="#1B1B43"/>
<path d="M17.3623 51.7475L17.2118 55.0187L17.1303 56.8085L16.9776 60.1007L15.5849 90.2271H9.20707L8.99795 57.2896C8.24936 55.1209 8.06324 53.0858 8.40198 51.1748C8.6216 49.9196 9.06906 48.7178 9.72984 47.5647L14.2258 45.6833L15.0999 47.3729L16.618 50.309L17.3623 51.7475Z" fill="#3335CF"/>
<path d="M19.5321 75.7192L17.7285 79.902L24.3677 83.64L22.6425 79.2482L23.4267 76.8169L19.5321 75.7192Z" fill="#1B1B43"/>
<path d="M17.2198 55.0188L16.9856 60.0999C15.296 58.4151 14.8255 56.4344 14.9657 54.3096L17.2198 55.0188Z" fill="#1B1B43"/>
<path d="M28.7156 64.2283L24.2281 77.9766L23.1533 77.6644L19.1906 76.5123L18.1786 76.2202L21.9843 61.4849L17.1309 56.8086L14.9415 54.701L11.4473 51.3362L11.4829 51.0909L12.0328 47.3329L15.1005 47.373L19.5461 47.4312L21.0141 49.0749L26.9173 55.6756C28.9979 58.0028 29.6837 61.2606 28.7156 64.2283Z" fill="#3335CF"/>
<path d="M9.25516 51.2305C8.96787 51.2305 8.68286 51.2123 8.40234 51.1741C8.62197 49.9189 9.06942 48.7172 9.7302 47.5641L14.2261 45.6827L15.1002 47.3722L12.0326 47.3321L11.504 50.9441C10.7702 51.1112 10.0053 51.2305 9.25516 51.2305Z" fill="#25257B"/>
<path d="M11.5029 50.9443L12.0315 47.3323L15.0992 47.3724L19.5448 47.4307L21.0128 49.0744C19.6422 49.7426 18.6091 49.796 17.537 49.796C17.4341 49.796 17.3309 49.7951 17.2271 49.7951C17.1231 49.7941 17.0185 49.7941 16.9129 49.7941C16.4471 49.7941 15.9615 49.8037 15.4274 49.8647C14.6035 49.9602 13.1292 50.5721 11.5029 50.9443Z" fill="#25257B"/>
<path d="M14.915 33.556L18.7313 37.4248L26.2592 34.1307C25.6981 33.3451 23.8694 30.7573 23.2203 29.9908L14.915 33.556Z" fill="#FE5B52"/>
<path d="M34.8167 21.8452L27.4455 28.171L23.2041 29.9913C23.8532 30.7578 25.2941 32.7604 25.8553 33.546L26.1716 33.3742C28.4329 32.1457 30.4657 30.5364 32.1808 28.6177L36.6464 23.6226L34.8167 21.8452Z" fill="#FFBC96"/>
<path d="M99.5915 9.05085L101.312 22.9576L96.0332 23.6114C96.3425 22.4813 96.4417 21.2241 96.2804 19.9202C95.7517 15.6515 92.6296 12.5235 89.3052 12.9349C85.9808 13.3463 83.7149 17.1415 84.2436 21.4103C84.4049 22.7132 84.8077 23.9093 85.3833 24.9297L45.3675 29.8818C45.5791 30.5032 45.7327 31.1647 45.8182 31.8558C46.3465 36.1245 44.0812 39.9198 40.7567 40.3312C37.4321 40.7426 34.31 37.6146 33.7817 33.3449C33.6962 32.6548 33.6838 31.9751 33.7377 31.3213L28.7758 31.936L27.0547 18.0283C26.3551 12.3746 30.3721 7.2229 36.0271 6.52322L88.0873 0.0791092C93.7425 -0.620567 98.8919 3.39709 99.5915 9.05085Z" fill="#FFA121"/>
<path d="M66.7387 17.31L66.7233 16.8919C67.128 16.8776 67.5305 16.8776 67.9298 16.8909L67.9151 17.309C67.5258 17.2957 67.1333 17.2956 66.7387 17.31ZM70.2522 17.562C69.8686 17.4923 69.4772 17.435 69.0878 17.393L69.1327 16.9778C69.5326 17.0207 69.9335 17.079 70.3267 17.1506L70.2522 17.562ZM64.4009 17.5639L64.326 17.1525C64.5049 17.12 64.6848 17.0904 64.8657 17.0637C65.0842 17.0312 65.3025 17.0036 65.5201 16.9797L65.5651 17.3959C65.3528 17.4188 65.1401 17.4455 64.9271 17.477C64.7505 17.5037 64.5751 17.5324 64.4009 17.5639ZM72.5267 18.15C72.1583 18.0259 71.7794 17.9132 71.4005 17.8149L71.5045 17.4102C71.8939 17.5104 72.2824 17.6259 72.6604 17.7538L72.5267 18.15ZM62.1249 18.1509L61.9911 17.7538C62.3706 17.6259 62.7598 17.5104 63.1478 17.4112L63.2522 17.8159C62.874 17.9132 62.4948 18.0259 62.1249 18.1509ZM74.6943 19.0606C74.3469 18.884 73.9871 18.7179 73.6272 18.5661L73.7895 18.1805C74.1589 18.3361 74.5273 18.507 74.8833 18.6883L74.6943 19.0606ZM59.9585 19.0625L59.7686 18.6893C60.1259 18.507 60.494 18.3361 60.8628 18.1815L61.0249 18.5671C60.6656 18.7179 60.3068 18.885 59.9585 19.0625ZM76.7083 20.2738C76.3876 20.0476 76.0564 19.8319 75.7223 19.6314L75.939 19.2725C76.2807 19.4787 76.6205 19.7001 76.9488 19.9321L76.7083 20.2738ZM57.9469 20.2796L57.7053 19.9378C58.0329 19.7059 58.3724 19.4835 58.7142 19.2763L58.9307 19.6343C58.5975 19.8357 58.2665 20.0524 57.9469 20.2796ZM78.5284 21.762C78.245 21.4937 77.9472 21.2322 77.6456 20.985L77.91 20.6614C78.2202 20.9143 78.5246 21.1825 78.8157 21.4575L78.5284 21.762ZM56.1309 21.7725L55.8428 21.4699C56.1336 21.193 56.4377 20.9239 56.7466 20.67L57.0122 20.9935C56.7111 21.2408 56.4145 21.5033 56.1309 21.7725ZM80.1176 23.4954C79.8762 23.1899 79.6184 22.8893 79.3541 22.6L79.6624 22.3175C79.9344 22.6134 80.1978 22.9227 80.445 23.2358L80.1176 23.4954ZM54.5458 23.5097L54.2177 23.251C54.4661 22.936 54.7289 22.6268 54.9985 22.3309L55.3076 22.6134C55.0445 22.9017 54.7881 23.2033 54.5458 23.5097ZM81.4405 25.4389C81.2449 25.1009 81.0339 24.7659 80.8144 24.4433L81.1599 24.2075C81.3852 24.5387 81.6009 24.8824 81.8023 25.2298L81.4405 25.4389ZM53.2227 25.4541L52.8612 25.2441C53.0625 24.8976 53.2788 24.554 53.5041 24.2228L53.8499 24.4585C53.6302 24.7812 53.4191 25.1162 53.2227 25.4541ZM52.1892 27.5665L51.8014 27.41C51.9515 27.0377 52.1168 26.6674 52.2927 26.3075L52.6683 26.4917C52.4968 26.842 52.3355 27.2038 52.1892 27.5665ZM51.6477 29.1329L51.2461 29.0165C51.2919 28.858 51.34 28.7005 51.3907 28.544L51.7887 28.6719C51.7395 28.8256 51.6925 28.9793 51.6477 29.1329Z" fill="white"/>
<path d="M57.9717 3.80843L57.5187 3.86475C57.1531 4.14157 56.7939 4.42411 56.4433 4.71047C51.0285 9.12714 46.3176 14.7809 39.5801 17.2465C36.6046 18.3356 33.3585 18.6773 30.305 17.7085C29.1366 17.3372 28.003 16.7902 26.9889 16.081C26.9835 16.1631 26.979 16.2461 26.9756 16.3282C29.5086 18.033 32.8015 18.7585 35.7893 18.3919C42.784 17.5319 48.134 12.4041 53.1148 7.88528C54.6299 6.51074 56.2505 5.09706 57.9717 3.80843Z" fill="white"/>
<path d="M99.6317 9.3337C96.5078 9.68593 93.3456 9.44538 90.3428 8.37725C86.0038 6.8328 82.5992 3.56732 78.6916 1.24301L78.3643 1.28404C81.8786 3.3344 85.0264 6.22189 88.6926 7.92479C92.1535 9.53129 95.9322 9.94365 99.6556 9.52842L99.6317 9.3337Z" fill="white"/>
<path d="M19.876 26.7864C19.876 26.7864 21.2353 27.8058 21.0261 28.2239C20.817 28.642 19.7715 28.7594 19.7715 28.7594L19.876 26.7864Z" fill="#D28572"/>
<path d="M18.6703 30.1945V33.2795L14.4609 32.7813V29.9463L14.4881 29.2657L15.6383 28.1288L17.8171 29.6131L18.6703 30.1945Z" fill="#FFBC96"/>
<path d="M18.6574 30.1962V32.5091L18.6407 32.5262C17.2919 32.3859 16.445 31.4638 15.7988 30.2258L17.8042 29.6149L18.6574 30.1962Z" fill="#1B1B43"/>
<path d="M20.0746 25.4266C20.0746 25.4266 20.6234 30.2624 19.1597 30.8895C17.5624 31.5749 15.448 30.2366 15.448 30.2366L15.082 27.9886L16.2845 25.1393L20.0746 25.4266Z" fill="#FFBC96"/>
<path d="M17.4407 27.5937C17.5215 26.7747 17.804 26.054 18.3817 25.4765C19.9287 26.0598 21.1978 25.739 22.015 23.9464C20.7865 24.0648 20.1641 24.0333 18.643 23.0577C16.748 21.8426 14.9314 23.829 14.9314 23.829C11.9071 25.1291 13.0232 27.567 14.4739 29.9467C14.8159 29.1229 15.3573 28.3783 17.0095 28.0777L17.4407 27.5937Z" fill="#1B1B43"/>
<path d="M17.7964 27.3181C18.1149 27.8173 18.0765 28.411 17.7106 28.644C17.3448 28.8778 16.7901 28.6631 16.4716 28.1638C16.1532 27.6646 16.1917 27.0709 16.5574 26.838C16.9233 26.6041 17.478 26.8189 17.7964 27.3181Z" fill="#FFBC96"/>
<path d="M28.2436 34.3903L33.7328 33.5541L38.8037 28.5352C38.8037 28.5352 39.5356 24.0908 39.8492 24.1958C40.1628 24.2999 40.2674 26.2872 40.2674 26.2872C40.2674 26.2872 41.6266 22.8881 41.9403 23.0456C42.254 23.2021 41.5743 26.0782 41.5743 26.0782C41.5743 26.0782 43.3518 26.7053 43.2995 27.2284C43.2472 27.7505 41.9926 29.4763 41.5221 29.9985C41.2469 30.3049 39.3986 32.7733 37.9111 34.7712C36.6756 36.4302 34.8097 37.505 32.7545 37.7398L25.9434 38.5206L28.2436 34.3903Z" fill="#FFBC96"/>
<path d="M28.2371 34.3893L27.7143 39.5649L22.3297 39.3043C22.3297 39.3043 22.2063 40.5127 22.0203 42.0247C21.7694 44.055 21.4055 46.6361 21.0751 47.5639C20.5 49.1847 18.9317 48.4011 16.5792 48.192C14.2268 47.983 12.0311 49.2372 9.78313 49.4463C7.53517 49.6553 8.42387 48.4011 8.89443 46.8327C9.36489 45.2644 10.2014 40.1404 10.0445 38.049C9.88765 35.9576 10.7764 33.2916 13.704 32.3504C16.6315 31.4092 28.2371 34.3893 28.2371 34.3893Z" fill="#FE5B52"/>
<path d="M22.3292 39.3049C22.3292 39.3049 22.2058 40.5134 22.0197 42.0254C21.1728 41.4603 20.5915 40.584 20.5518 39.1999L22.3292 39.3049Z" fill="#1B1B43"/>
<path d="M28.2044 34.4678C28.0851 34.4353 16.2425 31.2519 13.1685 32.7553L13.0996 32.6141C14.4157 31.9707 17.3665 32.0623 21.8698 32.8861C25.215 33.4989 28.2154 34.3084 28.2454 34.317L28.2044 34.4678Z" fill="#1B1B43"/>
<path d="M120.457 60.2218C120.221 60.282 120.058 60.4719 119.907 60.6485C119.757 60.8251 119.584 61.0093 119.343 61.0542C119.121 61.0943 118.893 61.0046 118.664 60.9979C118.347 60.9893 118.034 61.1611 117.894 61.4217C117.755 61.6823 117.795 62.0193 117.993 62.2503C117.645 62.2827 117.283 62.318 116.986 62.4841C116.688 62.6502 116.473 62.9872 116.581 63.2955C116.615 63.3957 116.681 63.4864 116.704 63.5895C116.78 63.9207 116.413 64.1765 116.091 64.334C115.77 64.4915 115.394 64.7254 115.439 65.0604C115.488 65.4212 115.992 65.5892 116.127 65.931C116.273 66.3032 115.932 66.6669 115.622 66.9323C115.311 67.1976 114.974 67.5671 115.13 67.9355C115.209 68.1236 115.399 68.2515 115.52 68.4195C115.581 68.5016 115.539 68.9006 115.456 69.2957C115.355 69.7806 115.675 70.255 116.161 70.3534L118.076 70.739L124.504 71.495L127.625 70.822C127.436 70.6808 127.38 70.4374 127.366 70.215C127.354 69.9916 127.369 69.7606 127.274 69.5535C127.179 69.3473 126.923 69.1764 126.698 69.2547C126.877 69.1077 127.06 68.955 127.169 68.7564C127.277 68.5588 127.294 68.3011 127.147 68.1216C126.907 67.8257 126.333 67.8343 126.195 67.4888C126.021 67.0535 126.769 66.6402 126.569 66.2145C126.424 65.9042 125.869 65.8632 125.791 65.5348C125.702 65.1635 126.335 64.8838 126.212 64.5211C126.113 64.229 125.613 64.2013 125.488 63.9169C125.329 63.5551 125.924 63.2373 125.859 62.8526C125.803 62.5147 125.329 62.4297 124.994 62.2779C124.452 62.0317 124.176 61.479 123.76 61.0752C123.142 60.4748 122.158 60.218 121.302 60.4338C121.302 60.4338 120.693 60.1608 120.457 60.2218Z" fill="#1B1B43"/>
<path d="M125.65 119.061L126.209 124.707H117.879L121.433 121.5L121.921 118.747L125.65 119.061Z" fill="#D1D1FF"/>
<path d="M122.591 122.617L121.371 121.58L121.507 121.421L122.726 122.457L122.591 122.617Z" fill="#1B1B43"/>
<path d="M126.728 119.714L125.709 119.697L121.762 119.628L120.664 119.609C119.091 107.934 117.096 95.0624 117.28 88.3748C117.314 87.1215 117.427 86.0849 117.632 85.3127L121.164 85.7938L124.532 86.2539C124.469 87.0318 124.427 87.8766 124.409 88.7786C124.353 91.3129 124.453 94.3035 124.658 97.6014C125.068 104.161 125.895 111.931 126.728 119.714Z" fill="#1B1B43"/>
<path d="M133.414 118.773L134.809 124.559L141.43 127.487L138.015 121.84L137.143 118.529L133.414 118.773Z" fill="#D1D1FF"/>
<path d="M137.205 123.022L137.042 122.891L137.931 121.776L138.095 121.907L137.205 123.022Z" fill="#1B1B43"/>
<path d="M138.533 119.506H132.364C129.7 112.91 127.065 105.34 124.647 97.6025C123.736 94.6892 122.856 91.7511 122.015 88.834C121.725 87.8175 121.435 86.8047 121.154 85.7948C121.019 85.3204 120.888 84.846 120.758 84.3725L127.973 84.4775C128.261 85.6907 128.568 86.9269 128.893 88.1811C131.327 97.6521 134.689 108.278 138.533 119.506Z" fill="#1B1B43"/>
<path d="M123.211 92.9334C123.421 93.5338 123.626 94.1361 123.823 94.7403C124.022 95.3445 124.209 95.9516 124.403 96.5568L124.958 98.3819C125.136 98.9928 125.314 99.6028 125.476 100.218L125.398 100.242C125.183 99.6438 124.983 99.0405 124.783 98.4363L124.206 96.6189C124.022 96.0099 123.831 95.4037 123.654 94.7928C123.473 94.1838 123.301 93.571 123.133 92.9582L123.211 92.9334Z" fill="white"/>
<path d="M128.967 85.5155C128.719 86.2601 128.029 86.7698 127.248 86.8242C124.391 87.1344 121.349 87.333 118.162 87.4494C117.242 87.5124 116.426 86.8538 116.296 85.9403C115.579 80.8564 115.397 75.783 115.811 70.7259C119.263 68.8626 122.143 69.3151 124.806 69.7675C126.177 70.0014 127.49 70.2343 128.793 70.1512C128.979 71.7549 128.76 73.9064 128.753 75.6131C128.751 75.9377 128.758 76.245 128.776 76.5295C128.807 77.0125 128.818 77.5356 128.82 78.0558C128.826 78.6724 128.82 79.2833 128.828 79.8227C128.847 81.2745 129.506 83.8986 128.967 85.5155Z" fill="#FFA121"/>
<path d="M128.807 78.0583C128.224 77.8092 127.616 77.0923 127.409 76.3726L128.741 75.6157C128.739 75.9402 128.745 76.2476 128.764 76.532C128.795 77.015 128.806 77.5381 128.807 78.0583Z" fill="#1B1B43"/>
<path d="M115.788 70.7275C114.104 72.0046 108.072 78.36 108.836 81.7066C109.592 85.0255 113.384 81.341 115.841 76.4786L117.2 73.0279L115.788 70.7275Z" fill="#FFA121"/>
<path d="M110.057 81.9148C109.891 82.3673 109.355 83.7542 110.686 84.432C110.91 84.5456 111.182 84.5217 111.383 84.3747C111.533 84.2649 111.733 84.1637 111.939 84.1895C112.357 84.242 112.515 83.8497 112.855 83.6407C113.195 83.4316 113.521 82.8856 113.429 82.4904C113.09 81.0262 110.973 80.4248 110.057 81.9148Z" fill="#FFBC96"/>
<path d="M139.189 63.2218L139.876 60.7667C139.876 60.7667 140.164 58.9331 140.429 59.0514C140.695 59.1698 140.75 60.6369 140.75 60.6369C140.75 60.6369 141.657 57.9871 141.941 58.0606C142.227 58.1351 141.513 60.7114 141.513 60.7114C141.513 60.7114 143.035 60.8765 143 61.8578C142.965 62.839 141.064 64.7672 141.064 64.7672L139.189 63.2218Z" fill="#FFBC96"/>
<path d="M126.877 70.1002C126.877 70.1002 132.036 70.8514 135.4 67.3826C138.766 63.9138 139.335 62.4648 139.335 62.4648L141.848 64.8149C138.626 72.0437 133.87 75.8972 127.103 76.8154L126.877 70.1002Z" fill="#FFA121"/>
<path d="M115.736 80.7155C115.712 79.9995 115.674 79.2178 115.638 78.4618C115.539 76.4124 115.436 74.2942 115.58 73.0715L115.735 73.0887C115.594 74.3 115.696 76.4114 115.794 78.4541C115.831 79.2111 115.869 79.9938 115.893 80.7107L115.736 80.7155Z" fill="#1B1B43"/>
<path d="M123.529 77.4265C122.58 77.4265 122.013 76.7507 121.345 76.1742C120.99 75.8687 120.579 75.5919 120.094 75.5718C120.079 75.5709 120.064 75.5709 120.05 75.5709C119.518 75.5709 118.887 75.9498 118.972 76.5607C119.021 76.9111 119.383 77.1468 119.697 77.1468C119.941 77.1468 120.157 77.0036 120.173 76.66C120.176 76.6094 120.216 76.5836 120.255 76.5836C120.294 76.5836 120.332 76.6094 120.329 76.66C120.31 77.0867 120.009 77.3062 119.67 77.3062C119.476 77.3062 119.271 77.2346 119.098 77.0896C118.418 76.5178 119.039 75.5795 119.759 75.4382C119.865 75.4172 119.967 75.4077 120.065 75.4077C121.222 75.4077 121.834 76.7612 122.855 77.1354C123.06 77.2108 123.31 77.27 123.549 77.269C123.893 77.269 124.215 77.1478 124.349 76.7803C124.577 76.1541 123.973 75.6568 123.397 75.6568C123.195 75.6568 122.995 75.7179 122.838 75.8572C122.822 75.8725 122.803 75.8782 122.786 75.8782C122.723 75.8782 122.668 75.799 122.727 75.7465C122.919 75.5776 123.164 75.4993 123.413 75.4993C123.871 75.4993 124.341 75.7637 124.503 76.2133C124.74 76.8652 124.214 77.4084 123.587 77.4256C123.567 77.4265 123.548 77.4265 123.529 77.4265Z" fill="#FFD9A6"/>
<path d="M123.45 66.2837V69.5912C123.45 70.6689 122.658 71.5404 121.685 71.5404C121.197 71.5404 120.756 71.3237 120.436 70.9696C120.137 70.6412 119.947 70.1945 119.922 69.6981C119.919 69.6628 119.919 69.6275 119.919 69.5912V66.9481L122.343 66.4928L123.45 66.2837Z" fill="#FFBC96"/>
<path d="M122.549 67.3862C122.266 68.5746 120.846 69.4862 119.922 69.6971C119.919 69.6618 119.919 69.6265 119.919 69.5902V66.9471L122.343 66.4918L122.549 67.3862Z" fill="#D28572"/>
<path d="M118.857 62.8282C118.857 62.8282 117.843 67.7422 119.105 68.187C121.849 69.1549 123.609 66.6082 123.457 66.2788L123.536 63.168L121.418 62.5151L118.857 62.8282Z" fill="#FFBC96"/>
<path d="M118.441 63.6786C118.463 63.9039 118.759 64.0041 118.976 63.9354C119.192 63.8667 119.356 63.6939 119.546 63.5717C119.737 63.4486 120.004 63.3818 120.179 63.5249C120.241 63.5746 120.284 63.6462 120.349 63.6901C120.534 63.8161 120.777 63.6777 120.957 63.545C121.137 63.4133 121.388 63.2815 121.565 63.4161C121.741 63.5498 121.72 63.8705 121.925 63.9526C122.088 64.0194 122.292 63.8781 122.443 63.9679C122.541 64.0242 122.569 64.1549 122.558 64.2666C122.547 64.3793 122.505 64.4871 122.499 64.6007C122.485 64.8689 122.717 65.1257 122.986 65.141L124.242 64.0394L123.249 62.1399L120.181 62.1055L118.579 62.4883L118.441 63.6786Z" fill="#1B1B43"/>
<path d="M124.083 65.0049C124.314 65.4058 124.121 65.9489 123.653 66.22C123.184 66.4901 122.617 66.3851 122.386 65.9852C122.155 65.5852 122.347 65.0411 122.815 64.771C123.284 64.4999 123.852 64.6049 124.083 65.0049Z" fill="#FFBC96"/>
</svg>
