<svg width="50" height="36" viewBox="0 0 50 36" fill="none" xmlns="http://www.w3.org/2000/svg">
<path d="M13.866 35.2008C10.8244 35.0094 7.93423 34.0353 5.60833 32.4176C3.28244 30.7999 1.63971 28.6213 0.914701 26.1929C0.189696 23.7645 0.419489 21.2104 1.57127 18.8954C2.72305 16.5804 4.73792 14.6228 7.32818 13.3022C7.87934 9.7803 9.97761 6.5437 13.2303 4.19809C16.4831 1.85247 20.6673 0.558594 25 0.558594C29.3327 0.558594 33.5169 1.85247 36.7697 4.19809C40.0224 6.5437 42.1207 9.7803 42.6718 13.3022C45.2621 14.6228 47.277 16.5804 48.4287 18.8954C49.5805 21.2104 49.8103 23.7645 49.0853 26.1929C48.3603 28.6213 46.7176 30.7999 44.3917 32.4176C42.0658 34.0353 39.1756 35.0094 36.134 35.2008V35.2355H13.866V35.2008ZM27.2268 20.6364H33.9072L25 11.512L16.0928 20.6364H22.7732V27.936H27.2268V20.6364Z" fill="url(#paint0_linear_118_23120)"/>
<defs>
<linearGradient id="paint0_linear_118_23120" x1="25" y1="0.558594" x2="25" y2="35.2355" gradientUnits="userSpaceOnUse">
<stop stop-color="#6B53EE"/>
<stop offset="1" stop-color="#F66A4B"/>
</linearGradient>
</defs>
</svg>
