<svg width="17" height="18" viewBox="0 0 17 18" fill="none" xmlns="http://www.w3.org/2000/svg">
<path d="M15.9793 9.15435L15.3634 9.04784L15.3634 9.04784L15.9793 9.15435ZM15.3914 12.5541L14.7755 12.4476L14.7755 12.4476L15.3914 12.5541ZM4.28148 16.0642L3.6588 16.1181L3.6588 16.1181L4.28148 16.0642ZM3.60467 8.23702L4.22735 8.18318L4.22735 8.18318L3.60467 8.23702ZM10.1625 3.3512L10.7792 3.45226L10.7792 3.45226L10.1625 3.3512ZM9.61023 6.72167L10.227 6.82273L10.227 6.82273L9.61023 6.72167ZM4.08178 7.06459L3.67379 6.59113L3.67379 6.59113L4.08178 7.06459ZM5.28073 6.03143L5.68873 6.50489L5.68873 6.50489L5.28073 6.03143ZM7.26504 2.98647L6.66007 2.82954L6.66007 2.82954L7.26504 2.98647ZM7.66147 1.45826L8.26645 1.61519L8.26645 1.61519L7.66147 1.45826ZM9.05633 0.720315L8.86517 1.31536L8.86517 1.31536L9.05633 0.720315ZM9.17714 0.759125L9.3683 0.164076L9.3683 0.164075L9.17714 0.759125ZM6.71829 4.38553L7.26957 4.68001L7.26957 4.68001L6.71829 4.38553ZM10.0872 1.70629L9.48226 1.86322L9.48226 1.86322L10.0872 1.70629ZM8.2285 0.777015L7.95719 0.213975L7.95719 0.213975L8.2285 0.777015ZM1.80967 16.8923L1.18699 16.9461L1.18699 16.9461L1.80967 16.8923ZM1 7.52852L1.62268 7.47468C1.59384 7.14123 1.30744 6.88967 0.973054 6.9041C0.638667 6.91853 0.375 7.19382 0.375 7.52852L1 7.52852ZM15.3634 9.04784L14.7755 12.4476L16.0072 12.6607L16.5952 9.26085L15.3634 9.04784ZM9.53747 16.7084H5.66362V17.9584H9.53747V16.7084ZM4.90415 16.0104L4.22735 8.18318L2.982 8.29086L3.6588 16.1181L4.90415 16.0104ZM14.7755 12.4476C14.3532 14.8898 12.1511 16.7084 9.53747 16.7084V17.9584C12.726 17.9584 15.4757 15.7342 16.0072 12.6607L14.7755 12.4476ZM9.54568 3.25015L8.99345 6.62062L10.227 6.82273L10.7792 3.45226L9.54568 3.25015ZM4.48978 7.53806L5.68873 6.50489L4.87274 5.55797L3.67379 6.59113L4.48978 7.53806ZM7.87002 3.14341L8.26645 1.61519L7.05649 1.30133L6.66007 2.82954L7.87002 3.14341ZM8.86517 1.31536L8.98598 1.35417L9.3683 0.164075L9.24749 0.125266L8.86517 1.31536ZM7.26957 4.68001C7.52954 4.19333 7.73139 3.67785 7.87002 3.14341L6.66007 2.82954C6.54644 3.26758 6.38082 3.69079 6.16701 4.09105L7.26957 4.68001ZM8.98598 1.35417C9.24133 1.4362 9.42265 1.63343 9.48226 1.86322L10.6922 1.54936C10.521 0.889348 10.0158 0.372087 9.3683 0.164076L8.98598 1.35417ZM8.26645 1.61519C8.29563 1.50269 8.37688 1.39929 8.49982 1.34005L7.95719 0.213975C7.51387 0.427599 7.18085 0.82191 7.05649 1.30133L8.26645 1.61519ZM8.49981 1.34005C8.6121 1.28595 8.74429 1.27653 8.86517 1.31536L9.24749 0.125267C8.82272 -0.0111917 8.35934 0.0201853 7.95719 0.213975L8.49981 1.34005ZM10.2947 8.15352H14.6123V6.90352H10.2947V8.15352ZM2.43234 16.8384L1.62268 7.47468L0.377323 7.58236L1.18699 16.9461L2.43234 16.8384ZM1.625 16.9273V7.52852H0.375V16.9273H1.625ZM1.18699 16.9461C1.176 16.819 1.27621 16.7084 1.40559 16.7084V17.9584C2.01057 17.9584 2.48435 17.4399 2.43234 16.8384L1.18699 16.9461ZM10.7792 3.45226C10.883 2.81882 10.8534 2.17066 10.6922 1.54936L9.48226 1.86322C9.59972 2.31605 9.62133 2.78846 9.54568 3.25015L10.7792 3.45226ZM5.66362 16.7084C5.2687 16.7084 4.93834 16.4058 4.90415 16.0104L3.6588 16.1181C3.74877 17.1586 4.61891 17.9584 5.66362 17.9584V16.7084ZM5.68873 6.50489C6.25527 6.01669 6.86596 5.43558 7.26957 4.68001L6.16701 4.09105C5.87837 4.63141 5.41875 5.08746 4.87274 5.55797L5.68873 6.50489ZM16.5952 9.26085C16.8079 8.03045 15.8617 6.90352 14.6123 6.90352V8.15352C15.0845 8.15352 15.4444 8.57994 15.3634 9.04784L16.5952 9.26085ZM1.40559 16.7084C1.52743 16.7084 1.625 16.8071 1.625 16.9273H0.375C0.375 17.4961 0.835742 17.9584 1.40559 17.9584V16.7084ZM8.99345 6.62062C8.86199 7.42299 9.48047 8.15352 10.2947 8.15352V6.90352C10.2532 6.90352 10.2199 6.86586 10.227 6.82273L8.99345 6.62062ZM4.22735 8.18318C4.20617 7.93821 4.30396 7.69818 4.48978 7.53805L3.67379 6.59113C3.18352 7.01361 2.92624 7.6461 2.982 8.29086L4.22735 8.18318Z" fill="#E2E2E2"/>
</svg>
