<svg width="34" height="44" viewBox="0 0 34 44" fill="none" xmlns="http://www.w3.org/2000/svg">
<path fill-rule="evenodd" clip-rule="evenodd" d="M6.27499 0H20.9856L33.4534 12.9955V38.2719C33.4534 41.4383 30.8917 44 27.7362 44H6.27499C3.10858 44 0.546875 41.4383 0.546875 38.2719V5.72812C0.546819 2.56171 3.10853 0 6.27499 0Z" fill="#E5252A"/>
<path fill-rule="evenodd" clip-rule="evenodd" d="M20.9746 0V12.8966H33.4534L20.9746 0Z" fill="#F86F73"/>
<path d="M6.91309 32.8296V24.7926H10.3324C11.179 24.7926 11.8497 25.0235 12.3554 25.4962C12.8611 25.958 13.114 26.5847 13.114 27.3653C13.114 28.1459 12.8611 28.7726 12.3554 29.2344C11.8497 29.7071 11.179 29.938 10.3324 29.938H8.96906V32.8296H6.91309ZM8.96906 28.1899H10.1015C10.4093 28.1899 10.6512 28.1239 10.8162 27.9701C10.9811 27.8271 11.0691 27.6292 11.0691 27.3654C11.0691 27.1015 10.9811 26.9036 10.8162 26.7607C10.6513 26.6067 10.4094 26.5408 10.1015 26.5408H8.96906V28.1899ZM13.9606 32.8296V24.7926H16.8081C17.3688 24.7926 17.8966 24.8695 18.3913 25.0345C18.8861 25.1994 19.3369 25.4303 19.7326 25.7491C20.1285 26.057 20.4473 26.4747 20.6782 27.0025C20.8981 27.5303 21.019 28.1349 21.019 28.8166C21.019 29.4873 20.8981 30.092 20.6782 30.6197C20.4473 31.1474 20.1285 31.5652 19.7326 31.873C19.3368 32.1918 18.8861 32.4227 18.3913 32.5877C17.8966 32.7526 17.3688 32.8296 16.8081 32.8296H13.9606ZM15.9726 31.0815H16.5662C16.8851 31.0815 17.1819 31.0485 17.4568 30.9715C17.7206 30.8946 17.9735 30.7736 18.2154 30.6087C18.4463 30.4438 18.6332 30.2129 18.7651 29.9051C18.8971 29.5972 18.9631 29.2344 18.9631 28.8166C18.9631 28.3878 18.8971 28.025 18.7651 27.7172C18.6332 27.4093 18.4463 27.1785 18.2154 27.0135C17.9735 26.8486 17.7207 26.7276 17.4568 26.6507C17.1819 26.5738 16.8851 26.5407 16.5662 26.5407H15.9726V31.0815ZM22.0525 32.8296V24.7926H27.7697V26.5407H24.1085V27.8271H27.033V29.5642H24.1085V32.8296H22.0525Z" fill="white"/>
</svg>
