<svg width="20" height="20" viewBox="0 0 20 20" fill="none" xmlns="http://www.w3.org/2000/svg">
<circle cx="10" cy="10" r="2.5" stroke="white" stroke-width="1.25"/>
<path d="M11.4715 1.79349C11.1653 1.66663 10.777 1.66663 10.0004 1.66663C9.22383 1.66663 8.83554 1.66663 8.52926 1.79349C8.12088 1.96265 7.79642 2.28711 7.62726 2.69549C7.55005 2.88191 7.51983 3.09871 7.508 3.41495C7.49062 3.87969 7.25229 4.30987 6.84953 4.5424C6.44677 4.77493 5.95506 4.76624 5.5439 4.54892C5.26411 4.40104 5.06124 4.31881 4.86119 4.29247C4.42294 4.23478 3.97972 4.35354 3.62904 4.62263C3.36603 4.82444 3.17188 5.16071 2.7836 5.83324C2.39532 6.50576 2.20117 6.84203 2.1579 7.17071C2.10021 7.60896 2.21896 8.05218 2.48805 8.40286C2.61088 8.56292 2.78349 8.69748 3.0514 8.86581C3.44524 9.11328 3.69865 9.53484 3.69862 9.99998C3.6986 10.4651 3.4452 10.8866 3.05139 11.134C2.78345 11.3024 2.61081 11.4369 2.48797 11.597C2.21888 11.9477 2.10012 12.3909 2.15782 12.8291C2.20109 13.1578 2.39523 13.4941 2.78352 14.1666C3.1718 14.8392 3.36595 15.1754 3.62896 15.3772C3.97964 15.6463 4.42286 15.7651 4.8611 15.7074C5.06115 15.6811 5.26401 15.5988 5.54377 15.451C5.95497 15.2336 6.44671 15.2249 6.84949 15.4575C7.25227 15.69 7.49062 16.1202 7.508 16.585C7.51983 16.9012 7.55005 17.118 7.62726 17.3044C7.79642 17.7128 8.12088 18.0373 8.52926 18.2064C8.83554 18.3333 9.22383 18.3333 10.0004 18.3333C10.777 18.3333 11.1653 18.3333 11.4715 18.2064C11.8799 18.0373 12.2044 17.7128 12.3735 17.3044C12.4508 17.118 12.481 16.9012 12.4928 16.5849C12.5102 16.1202 12.7485 15.69 13.1512 15.4575C13.554 15.2249 14.0458 15.2336 14.457 15.4509C14.7367 15.5988 14.9396 15.681 15.1396 15.7073C15.5779 15.765 16.0211 15.6463 16.3718 15.3772C16.6348 15.1754 16.8289 14.8391 17.2172 14.1666C17.6055 13.494 17.7996 13.1578 17.8429 12.8291C17.9006 12.3908 17.7818 11.9476 17.5127 11.5969C17.3899 11.4369 17.2173 11.3023 16.9494 11.134C16.5555 10.8865 16.3021 10.465 16.3022 9.99989C16.3022 9.53483 16.5556 9.11336 16.9494 8.86595C17.2173 8.69758 17.39 8.56301 17.5128 8.40292C17.7819 8.05223 17.9007 7.60902 17.843 7.17077C17.7997 6.84209 17.6056 6.50582 17.2173 5.83329C16.829 5.16076 16.6348 4.8245 16.3718 4.62268C16.0212 4.35359 15.5779 4.23483 15.1397 4.29253C14.9396 4.31887 14.7368 4.40109 14.457 4.54896C14.0458 4.76629 13.5541 4.77497 13.1513 4.54243C12.7485 4.30988 12.5102 3.87968 12.4928 3.41491C12.481 3.09869 12.4507 2.8819 12.3735 2.69549C12.2044 2.28711 11.8799 1.96265 11.4715 1.79349Z" stroke="white" stroke-width="1.25"/>
</svg>
