<svg width="20" height="20" viewBox="0 0 20 20" fill="none" xmlns="http://www.w3.org/2000/svg">
<path d="M10.9059 17.823L11.4437 18.1414H11.4437L10.9059 17.823ZM11.3576 17.0598L10.8198 16.7415L11.3576 17.0598ZM8.643 17.0598L8.10515 17.3782H8.10515L8.643 17.0598ZM9.09475 17.823L9.63259 17.5047L9.09475 17.823ZM1.98416 13.2611L2.56159 13.022L2.56159 13.022L1.98416 13.2611ZM6.49164 15.8262L6.48087 16.4511L6.49164 15.8262ZM4.23914 15.5161L3.99997 16.0935H3.99997L4.23914 15.5161ZM18.0165 13.2611L18.5939 13.5003V13.5003L18.0165 13.2611ZM13.509 15.8262L13.4982 15.2013L13.509 15.8262ZM15.7615 15.5161L16.0007 16.0935H16.0007L15.7615 15.5161ZM16.3441 2.28063L16.0175 2.81353L16.3441 2.28063ZM17.7197 3.65621L18.2526 3.32965V3.32965L17.7197 3.65621ZM3.65658 2.28063L3.33002 1.74773L3.33002 1.74773L3.65658 2.28063ZM2.28099 3.65621L1.74809 3.32965H1.74809L2.28099 3.65621ZM7.83599 16.0082L8.15021 15.4679L8.15021 15.4679L7.83599 16.0082ZM11.4437 18.1414L11.8955 17.3782L10.8198 16.7415L10.368 17.5047L11.4437 18.1414ZM8.10515 17.3782L8.5569 18.1414L9.63259 17.5047L9.18084 16.7415L8.10515 17.3782ZM10.368 17.5047C10.2074 17.7761 9.79322 17.7761 9.63259 17.5047L8.5569 18.1414C9.20155 19.2305 10.7991 19.2305 11.4437 18.1414L10.368 17.5047ZM8.75033 2.29163H11.2503V1.04163H8.75033V2.29163ZM17.7087 8.74996V9.58329H18.9587V8.74996H17.7087ZM2.29199 9.58329V8.74996H1.04199V9.58329H2.29199ZM1.04199 9.58329C1.04199 10.5455 1.04165 11.2984 1.08309 11.9057C1.12491 12.5185 1.21135 13.0286 1.40674 13.5003L2.56159 13.022C2.4398 12.728 2.36766 12.3698 2.33019 11.8206C2.29233 11.2657 2.29199 10.5626 2.29199 9.58329H1.04199ZM6.50241 15.2013C5.45621 15.1832 4.90802 15.1167 4.47832 14.9387L3.99997 16.0935C4.67078 16.3714 5.4348 16.4331 6.48087 16.4511L6.50241 15.2013ZM1.40674 13.5003C1.89306 14.6744 2.82587 15.6072 3.99997 16.0935L4.47832 14.9387C3.61051 14.5792 2.92104 13.8898 2.56159 13.022L1.40674 13.5003ZM17.7087 9.58329C17.7087 10.5626 17.7083 11.2657 17.6705 11.8206C17.633 12.3698 17.5608 12.728 17.4391 13.022L18.5939 13.5003C18.7893 13.0286 18.8757 12.5185 18.9176 11.9057C18.959 11.2984 18.9587 10.5455 18.9587 9.58329H17.7087ZM13.5197 16.4511C14.5658 16.4331 15.3299 16.3714 16.0007 16.0935L15.5223 14.9387C15.0926 15.1167 14.5444 15.1832 13.4982 15.2013L13.5197 16.4511ZM17.4391 13.022C17.0796 13.8898 16.3901 14.5792 15.5223 14.9387L16.0007 16.0935C17.1748 15.6072 18.1076 14.6744 18.5939 13.5003L17.4391 13.022ZM11.2503 2.29163C12.6264 2.29163 13.6145 2.29229 14.3853 2.36557C15.1467 2.43797 15.6312 2.57682 16.0175 2.81353L16.6706 1.74773C16.0549 1.37043 15.3565 1.20228 14.5036 1.12118C13.6599 1.04097 12.6022 1.04163 11.2503 1.04163V2.29163ZM18.9587 8.74996C18.9587 7.39813 18.9593 6.34037 18.8791 5.49671C18.798 4.64376 18.6299 3.94534 18.2526 3.32965L17.1868 3.98278C17.4235 4.36905 17.5623 4.85357 17.6347 5.61503C17.708 6.38579 17.7087 7.37393 17.7087 8.74996H18.9587ZM16.0175 2.81353C16.4941 3.10556 16.8947 3.50623 17.1868 3.98278L18.2526 3.32965C17.8575 2.68491 17.3154 2.14283 16.6706 1.74773L16.0175 2.81353ZM8.75033 1.04163C7.3985 1.04163 6.34074 1.04097 5.49708 1.12118C4.64412 1.20228 3.9457 1.37043 3.33002 1.74773L3.98314 2.81353C4.36941 2.57682 4.85394 2.43797 5.6154 2.36557C6.38616 2.29229 7.37429 2.29163 8.75033 2.29163V1.04163ZM2.29199 8.74996C2.29199 7.37393 2.29265 6.38579 2.36594 5.61503C2.43834 4.85357 2.57718 4.36905 2.81389 3.98278L1.74809 3.32965C1.3708 3.94534 1.20265 4.64376 1.12155 5.49671C1.04133 6.34037 1.04199 7.39813 1.04199 8.74996H2.29199ZM3.33002 1.74773C2.68527 2.14283 2.14319 2.68491 1.74809 3.32965L2.81389 3.98278C3.10592 3.50623 3.50659 3.10556 3.98314 2.81353L3.33002 1.74773ZM9.18084 16.7415C9.01165 16.4556 8.86313 16.2034 8.71871 16.0052C8.5666 15.7965 8.39212 15.6086 8.15021 15.4679L7.52176 16.5484C7.56126 16.5714 7.61509 16.6133 7.70854 16.7415C7.80967 16.8803 7.92395 17.072 8.10515 17.3782L9.18084 16.7415ZM6.48087 16.4511C6.84679 16.4574 7.07855 16.462 7.25523 16.4816C7.42031 16.4998 7.48431 16.5266 7.52176 16.5484L8.15021 15.4679C7.90624 15.326 7.65238 15.2679 7.3928 15.2392C7.14481 15.2117 6.84511 15.2072 6.50241 15.2013L6.48087 16.4511ZM11.8955 17.3782C12.0767 17.072 12.1909 16.8803 12.2921 16.7415C12.3855 16.6133 12.4394 16.5714 12.4789 16.5484L11.8504 15.4679C11.6085 15.6086 11.434 15.7965 11.2819 16.0052C11.1375 16.2034 10.989 16.4556 10.8198 16.7415L11.8955 17.3782ZM13.4982 15.2013C13.1555 15.2072 12.8558 15.2117 12.6078 15.2392C12.3482 15.2679 12.0944 15.326 11.8504 15.4679L12.4789 16.5484C12.5163 16.5266 12.5803 16.4998 12.7454 16.4816C12.9221 16.462 13.1538 16.4574 13.5197 16.4511L13.4982 15.2013Z" fill="white"/>
<path d="M6.66699 9.16663H6.67449M9.99283 9.16663H10.0003M13.3262 9.16663H13.3337" stroke="white" stroke-width="1.66667" stroke-linecap="round" stroke-linejoin="round"/>
</svg>
