<svg width="21" height="20" viewBox="0 0 21 20" fill="none" xmlns="http://www.w3.org/2000/svg">
<path d="M17.427 10.5394L17.8584 8.92954C18.3619 7.0503 18.6137 6.11069 18.4241 5.29754C18.2744 4.65549 17.9376 4.07226 17.4565 3.62158C16.8471 3.05081 15.9074 2.79904 14.0282 2.2955C12.149 1.79196 11.2093 1.54019 10.3962 1.72979C9.75416 1.8795 9.17092 2.21623 8.72024 2.69741C8.23156 3.21917 7.97672 3.983 7.59749 5.37137C7.53381 5.60452 7.46661 5.85529 7.39422 6.12548L7.39417 6.12567L6.9628 7.73554C6.45926 9.61478 6.20749 10.5544 6.39709 11.3675C6.5468 12.0096 6.88353 12.5928 7.36471 13.0435C7.97411 13.6143 8.91372 13.866 10.7929 14.3696L10.793 14.3696C12.4868 14.8234 13.4173 15.0728 14.1798 14.9787C14.2633 14.9684 14.3447 14.954 14.425 14.9353C15.067 14.7856 15.6502 14.4488 16.1009 13.9677C16.6717 13.3583 16.9235 12.4186 17.427 10.5394Z" stroke="#E2E2E2" stroke-width="1.25"/>
<path d="M14.1785 14.9784C14.0048 15.5105 13.6993 15.9918 13.2885 16.3766C12.6791 16.9473 11.7395 17.1991 9.86023 17.7026C7.981 18.2062 7.04138 18.4579 6.22824 18.2683C5.58619 18.1186 5.00295 17.7819 4.55228 17.3007C3.98151 16.6913 3.72974 15.7517 3.2262 13.8725L2.79483 12.2626C2.29129 10.3834 2.03952 9.44375 2.22912 8.6306C2.37883 7.98856 2.71556 7.40532 3.19674 6.95464C3.80614 6.38387 4.74576 6.13211 6.62499 5.62857C6.98052 5.5333 7.30242 5.44705 7.59619 5.37109" stroke="#E2E2E2" stroke-width="1.25"/>
</svg>
