<svg width="21" height="20" viewBox="0 0 21 20" fill="none" xmlns="http://www.w3.org/2000/svg">
<path d="M17.9793 9.84565L17.3634 9.95216L17.9793 9.84565ZM17.3914 6.44585L16.7755 6.55236L17.3914 6.44585ZM6.28148 2.93575L5.6588 2.88191L6.28148 2.93575ZM5.60467 10.763L6.22735 10.8168L5.60467 10.763ZM12.1625 15.6488L12.7792 15.5477V15.5477L12.1625 15.6488ZM11.6102 12.2783L12.227 12.1773V12.1773L11.6102 12.2783ZM6.08178 11.9354L5.67379 12.4089H5.67379L6.08178 11.9354ZM7.28073 12.9686L7.68873 12.4951L7.28073 12.9686ZM9.26504 16.0135L8.66007 16.1705V16.1705L9.26504 16.0135ZM9.66147 17.5417L10.2664 17.3848V17.3848L9.66147 17.5417ZM11.0563 18.2797L10.8652 17.6846L10.8652 17.6846L11.0563 18.2797ZM11.1771 18.2409L11.3683 18.8359L11.3683 18.8359L11.1771 18.2409ZM8.71829 14.6145L9.26957 14.32L8.71829 14.6145ZM12.0872 17.2937L11.4823 17.1368V17.1368L12.0872 17.2937ZM10.2285 18.223L9.95719 18.786V18.786L10.2285 18.223ZM3.80967 2.10771L3.18699 2.05387L3.80967 2.10771ZM3 11.4715L3.62268 11.5253C3.59384 11.8588 3.30744 12.1103 2.97305 12.0959C2.63867 12.0815 2.375 11.8062 2.375 11.4715H3ZM17.3634 9.95216L16.7755 6.55236L18.0072 6.33935L18.5952 9.73915L17.3634 9.95216ZM11.5375 2.29165H7.66362V1.04165H11.5375V2.29165ZM6.90415 2.98959L6.22735 10.8168L4.982 10.7091L5.6588 2.88191L6.90415 2.98959ZM16.7755 6.55236C16.3532 4.1102 14.1511 2.29165 11.5375 2.29165V1.04165C14.726 1.04165 17.4757 3.26578 18.0072 6.33935L16.7755 6.55236ZM11.5457 15.7499L10.9935 12.3794L12.227 12.1773L12.7792 15.5477L11.5457 15.7499ZM6.48978 11.4619L7.68873 12.4951L6.87274 13.442L5.67379 12.4089L6.48978 11.4619ZM9.87002 15.8566L10.2664 17.3848L9.05649 17.6987L8.66007 16.1705L9.87002 15.8566ZM10.8652 17.6846L10.986 17.6458L11.3683 18.8359L11.2475 18.8747L10.8652 17.6846ZM9.26957 14.32C9.52954 14.8067 9.73139 15.3222 9.87002 15.8566L8.66007 16.1705C8.54644 15.7324 8.38082 15.3092 8.16701 14.9089L9.26957 14.32ZM10.986 17.6458C11.2413 17.5638 11.4226 17.3666 11.4823 17.1368L12.6922 17.4506C12.521 18.1107 12.0158 18.6279 11.3683 18.8359L10.986 17.6458ZM10.2664 17.3848C10.2956 17.4973 10.3769 17.6007 10.4998 17.6599L9.95719 18.786C9.51387 18.5724 9.18085 18.1781 9.05649 17.6987L10.2664 17.3848ZM10.4998 17.6599C10.6121 17.7141 10.7443 17.7235 10.8652 17.6846L11.2475 18.8747C10.8227 19.0112 10.3593 18.9798 9.95719 18.786L10.4998 17.6599ZM12.2947 10.8465H16.6123V12.0965H12.2947V10.8465ZM4.43234 2.16155L3.62268 11.5253L2.37732 11.4176L3.18699 2.05387L4.43234 2.16155ZM3.625 2.07269V11.4715H2.375V2.07269H3.625ZM3.18699 2.05387C3.176 2.18099 3.27621 2.29165 3.40559 2.29165V1.04165C4.01057 1.04165 4.48435 1.56006 4.43234 2.16155L3.18699 2.05387ZM12.7792 15.5477C12.883 16.1812 12.8534 16.8293 12.6922 17.4506L11.4823 17.1368C11.5997 16.684 11.6213 16.2115 11.5457 15.7499L12.7792 15.5477ZM7.66362 2.29165C7.2687 2.29165 6.93834 2.59417 6.90415 2.98959L5.6588 2.88191C5.74877 1.84144 6.61891 1.04165 7.66362 1.04165V2.29165ZM7.68873 12.4951C8.25527 12.9833 8.86596 13.5644 9.26957 14.32L8.16701 14.9089C7.87837 14.3686 7.41875 13.9125 6.87274 13.442L7.68873 12.4951ZM18.5952 9.73915C18.8079 10.9696 17.8617 12.0965 16.6123 12.0965V10.8465C17.0845 10.8465 17.4444 10.4201 17.3634 9.95216L18.5952 9.73915ZM3.40559 2.29165C3.52743 2.29165 3.625 2.19295 3.625 2.07269H2.375C2.375 1.50393 2.83574 1.04165 3.40559 1.04165V2.29165ZM10.9935 12.3794C10.862 11.577 11.4805 10.8465 12.2947 10.8465V12.0965C12.2532 12.0965 12.2199 12.1341 12.227 12.1773L10.9935 12.3794ZM6.22735 10.8168C6.20617 11.0618 6.30396 11.3018 6.48978 11.4619L5.67379 12.4089C5.18352 11.9864 4.92624 11.3539 4.982 10.7091L6.22735 10.8168Z" fill="#E2E2E2"/>
</svg>
