<svg width="238" height="355" viewBox="0 0 238 355" fill="none" xmlns="http://www.w3.org/2000/svg">
<path d="M75.9155 223.824H12.1538C7.35829 223.824 3.80992 221.671 1.50866 217.364C-0.792597 213.058 -0.461162 208.849 2.50297 204.737L139.097 6.28421C141.122 3.55067 143.652 1.67584 146.688 0.659726C149.724 -0.356075 152.76 -0.19883 155.797 1.13146C158.833 2.34099 161.236 4.37306 163.008 7.22768C164.779 10.0823 165.412 13.1303 164.906 16.3718L148.387 148.347H225.667C230.896 148.347 234.583 150.658 236.728 155.279C238.872 159.899 238.306 164.266 235.029 168.378L84.5541 349.631C82.5298 352.171 79.9212 353.822 76.7284 354.584C73.5356 355.346 70.5777 355.061 67.8548 353.731C65.0113 352.521 62.8123 350.55 61.2579 347.816C59.7038 345.083 59.1195 342.035 59.5051 338.672L75.9155 223.824Z" fill="url(#paint0_linear_51_10329)"/>
<defs>
<linearGradient id="paint0_linear_51_10329" x1="119" y1="0" x2="119" y2="355" gradientUnits="userSpaceOnUse">
<stop stop-color="#F66A4B"/>
<stop offset="1" stop-color="#6B53EE"/>
</linearGradient>
</defs>
</svg>
