<svg width="21" height="20" viewBox="0 0 21 20" fill="none" xmlns="http://www.w3.org/2000/svg">
<path d="M3.56586 9.44444H2.94086H3.56586ZM3.56586 10.8333L3.12566 11.277C3.36933 11.5188 3.76239 11.5188 4.00606 11.277L3.56586 10.8333ZM5.4059 9.88812C5.65094 9.645 5.65249 9.24928 5.40938 9.00424C5.16626 8.75921 4.77053 8.75765 4.5255 9.00077L5.4059 9.88812ZM2.60622 9.00077C2.36118 8.75765 1.96546 8.75921 1.72234 9.00424C1.47922 9.24928 1.48078 9.645 1.72581 9.88812L2.60622 9.00077ZM16.0123 6.16066C16.1931 6.45471 16.578 6.54654 16.8721 6.36576C17.1661 6.18499 17.258 5.80006 17.0772 5.50601L16.0123 6.16066ZM10.5651 1.875C6.35897 1.875 2.94086 5.25934 2.94086 9.44444H4.19086C4.19086 5.95893 7.04005 3.125 10.5651 3.125V1.875ZM2.94086 9.44444L2.94086 10.8333H4.19086L4.19086 9.44444L2.94086 9.44444ZM4.00606 11.277L5.4059 9.88812L4.5255 9.00077L3.12566 10.3897L4.00606 11.277ZM4.00606 10.3897L2.60622 9.00077L1.72581 9.88812L3.12566 11.277L4.00606 10.3897ZM17.0772 5.50601C15.7385 3.32856 13.3221 1.875 10.5651 1.875V3.125C12.873 3.125 14.8933 4.34037 16.0123 6.16066L17.0772 5.50601Z" fill="#E2E2E2"/>
<path d="M17.4289 9.16669L17.8683 8.72217C17.6248 8.48152 17.233 8.48152 16.9895 8.72217L17.4289 9.16669ZM15.5844 10.1111C15.3389 10.3537 15.3365 10.7494 15.5792 10.9949C15.8218 11.2404 16.2176 11.2427 16.4631 11.0001L15.5844 10.1111ZM18.3947 11.0001C18.6402 11.2427 19.036 11.2404 19.2786 10.9949C19.5213 10.7494 19.5189 10.3537 19.2734 10.1111L18.3947 11.0001ZM4.93226 13.8385C4.75099 13.5447 4.3659 13.4535 4.07216 13.6348C3.77841 13.8161 3.68724 14.2012 3.86852 14.4949L4.93226 13.8385ZM10.4029 18.125C14.6215 18.125 18.0539 14.7429 18.0539 10.5556H16.8039C16.8039 14.0389 13.945 16.875 10.4029 16.875V18.125ZM18.0539 10.5556V9.16669H16.8039V10.5556H18.0539ZM16.9895 8.72217L15.5844 10.1111L16.4631 11.0001L17.8683 9.6112L16.9895 8.72217ZM16.9895 9.6112L18.3947 11.0001L19.2734 10.1111L17.8683 8.72217L16.9895 9.6112ZM3.86852 14.4949C5.21236 16.6725 7.63735 18.125 10.4029 18.125V16.875C8.08418 16.875 6.05552 15.6586 4.93226 13.8385L3.86852 14.4949Z" fill="#E2E2E2"/>
</svg>
